<svg width="781" height="413" viewBox="0 0 781 413" fill="none" xmlns="http://www.w3.org/2000/svg">
<mask id="mask0_2_29" style="mask-type:alpha" maskUnits="userSpaceOnUse" x="0" y="244" width="738" height="169">
<rect y="244" width="738" height="169" fill="#D9D9D9"/>
</mask>
<g mask="url(#mask0_2_29)">
<path d="M293.381 87.1818V325H265.511L135.919 138.276H133.597V325H104.798V87.1818H132.668L262.724 274.371H265.047V87.1818H293.381ZM430.991 328.251C415.353 328.251 401.883 325.387 390.581 319.658C379.278 313.93 370.569 306.072 364.453 296.086C358.337 286.099 355.28 274.68 355.28 261.83C355.28 251.92 357.37 243.134 361.55 235.47C365.808 227.728 371.653 220.567 379.085 213.987C386.594 207.33 395.226 200.672 404.98 194.014L439.352 168.467C446.087 164.055 451.467 159.332 455.493 154.3C459.596 149.268 461.648 142.688 461.648 134.56C461.648 128.521 458.977 122.676 453.635 117.025C448.371 111.374 441.442 108.548 432.849 108.548C426.811 108.548 421.469 110.097 416.824 113.193C412.257 116.212 408.657 120.083 406.025 124.805C403.47 129.45 402.193 134.25 402.193 139.205C402.193 144.778 403.703 150.43 406.722 156.158C409.818 161.81 413.728 167.616 418.45 173.577C423.25 179.46 428.204 185.499 433.314 191.692L542.469 325H509.49L419.379 216.31C411.018 206.246 403.432 197.111 396.619 188.905C389.807 180.699 384.388 172.609 380.362 164.635C376.336 156.662 374.324 148.03 374.324 138.74C374.324 128.057 376.685 118.69 381.407 110.638C386.207 102.51 392.903 96.2006 401.496 91.7106C410.167 87.1431 420.308 84.8594 431.92 84.8594C443.842 84.8594 454.1 87.1818 462.693 91.8267C471.286 96.3942 477.905 102.471 482.55 110.058C487.194 117.567 489.517 125.734 489.517 134.56C489.517 145.94 486.691 155.81 481.04 164.171C475.389 172.532 467.686 180.312 457.932 187.511L410.554 222.812C399.871 230.709 392.632 238.373 388.839 245.805C385.046 253.237 383.149 258.578 383.149 261.83C383.149 269.261 385.084 276.19 388.955 282.615C392.826 289.041 398.284 294.228 405.328 298.176C412.373 302.124 420.618 304.098 430.062 304.098C439.042 304.098 447.79 302.201 456.306 298.408C464.822 294.537 472.524 288.963 479.414 281.686C486.382 274.409 491.878 265.662 495.904 255.443C500.007 245.224 502.058 233.728 502.058 220.955H528.534C528.534 236.747 526.715 249.637 523.076 259.623C519.438 269.61 515.335 277.429 510.767 283.08C506.2 288.731 502.523 292.95 499.736 295.737C498.807 296.898 497.955 298.06 497.181 299.221C496.407 300.382 495.555 301.543 494.626 302.705C486.962 311.298 477.285 317.723 465.596 321.981C453.906 326.161 442.371 328.251 430.991 328.251ZM683.911 87.1818H712.709V257.185C712.709 272.358 709.922 285.248 704.349 295.853C698.775 306.459 690.917 314.51 680.776 320.007C670.634 325.503 658.674 328.251 644.894 328.251C631.888 328.251 620.315 325.89 610.174 321.168C600.032 316.368 592.058 309.556 586.252 300.73C580.446 291.905 577.543 281.415 577.543 269.261H605.877C605.877 275.996 607.541 281.88 610.87 286.912C614.277 291.866 618.921 295.737 624.805 298.524C630.688 301.311 637.385 302.705 644.894 302.705C653.177 302.705 660.222 300.963 666.028 297.479C671.834 293.995 676.247 288.886 679.266 282.151C682.363 275.338 683.911 267.016 683.911 257.185V87.1818Z" fill="black"/>
</g>
<mask id="mask1_2_29" style="mask-type:alpha" maskUnits="userSpaceOnUse" x="23" y="0" width="738" height="169">
<rect x="23" width="738" height="169" fill="#D9D9D9"/>
</mask>
<g mask="url(#mask1_2_29)">
<path d="M293.381 87.1818V325H265.511L135.919 138.276H133.597V325H104.798V87.1818H132.668L262.724 274.371H265.047V87.1818H293.381ZM430.991 328.251C415.353 328.251 401.883 325.387 390.581 319.658C379.278 313.93 370.569 306.072 364.453 296.086C358.337 286.099 355.28 274.68 355.28 261.83C355.28 251.92 357.37 243.134 361.55 235.47C365.808 227.728 371.653 220.567 379.085 213.987C386.594 207.33 395.226 200.672 404.98 194.014L439.352 168.467C446.087 164.055 451.467 159.332 455.493 154.3C459.596 149.268 461.648 142.688 461.648 134.56C461.648 128.521 458.977 122.676 453.635 117.025C448.371 111.374 441.442 108.548 432.849 108.548C426.811 108.548 421.469 110.097 416.824 113.193C412.257 116.212 408.657 120.083 406.025 124.805C403.47 129.45 402.193 134.25 402.193 139.205C402.193 144.778 403.703 150.43 406.722 156.158C409.818 161.81 413.728 167.616 418.45 173.577C423.25 179.46 428.204 185.499 433.314 191.692L542.469 325H509.49L419.379 216.31C411.018 206.246 403.432 197.111 396.619 188.905C389.807 180.699 384.388 172.609 380.362 164.635C376.336 156.662 374.324 148.03 374.324 138.74C374.324 128.057 376.685 118.69 381.407 110.638C386.207 102.51 392.903 96.2006 401.496 91.7106C410.167 87.1431 420.308 84.8594 431.92 84.8594C443.842 84.8594 454.1 87.1818 462.693 91.8267C471.286 96.3942 477.905 102.471 482.55 110.058C487.194 117.567 489.517 125.734 489.517 134.56C489.517 145.94 486.691 155.81 481.04 164.171C475.389 172.532 467.686 180.312 457.932 187.511L410.554 222.812C399.871 230.709 392.632 238.373 388.839 245.805C385.046 253.237 383.149 258.578 383.149 261.83C383.149 269.261 385.084 276.19 388.955 282.615C392.826 289.041 398.284 294.228 405.328 298.176C412.373 302.124 420.618 304.098 430.062 304.098C439.042 304.098 447.79 302.201 456.306 298.408C464.822 294.537 472.524 288.963 479.414 281.686C486.382 274.409 491.878 265.662 495.904 255.443C500.007 245.224 502.058 233.728 502.058 220.955H528.534C528.534 236.747 526.715 249.637 523.076 259.623C519.438 269.61 515.335 277.429 510.767 283.08C506.2 288.731 502.523 292.95 499.736 295.737C498.807 296.898 497.955 298.06 497.181 299.221C496.407 300.382 495.555 301.543 494.626 302.705C486.962 311.298 477.285 317.723 465.596 321.981C453.906 326.161 442.371 328.251 430.991 328.251ZM683.911 87.1818H712.709V257.185C712.709 272.358 709.922 285.248 704.349 295.853C698.775 306.459 690.917 314.51 680.776 320.007C670.634 325.503 658.674 328.251 644.894 328.251C631.888 328.251 620.315 325.89 610.174 321.168C600.032 316.368 592.058 309.556 586.252 300.73C580.446 291.905 577.543 281.415 577.543 269.261H605.877C605.877 275.996 607.541 281.88 610.87 286.912C614.277 291.866 618.921 295.737 624.805 298.524C630.688 301.311 637.385 302.705 644.894 302.705C653.177 302.705 660.222 300.963 666.028 297.479C671.834 293.995 676.247 288.886 679.266 282.151C682.363 275.338 683.911 267.016 683.911 257.185V87.1818Z" fill="black"/>
</g>
<path d="M124.117 199.168H114.629C114.456 197.94 114.102 196.85 113.567 195.897C113.033 194.929 112.347 194.106 111.51 193.428C110.672 192.749 109.704 192.229 108.607 191.868C107.524 191.507 106.347 191.326 105.076 191.326C102.78 191.326 100.78 191.897 99.0756 193.038C97.3716 194.164 96.0502 195.81 95.1115 197.977C94.1728 200.128 93.7035 202.742 93.7035 205.818C93.7035 208.981 94.1728 211.638 95.1115 213.79C96.0646 215.942 97.3932 217.566 99.0973 218.664C100.801 219.761 102.773 220.31 105.011 220.31C106.267 220.31 107.43 220.144 108.499 219.812C109.582 219.48 110.542 218.996 111.38 218.36C112.217 217.711 112.91 216.924 113.459 215.999C114.022 215.075 114.412 214.021 114.629 212.837L124.117 212.88C123.871 214.916 123.258 216.88 122.276 218.772C121.308 220.649 120.001 222.332 118.355 223.819C116.723 225.292 114.773 226.462 112.506 227.328C110.253 228.181 107.704 228.607 104.859 228.607C100.902 228.607 97.3643 227.711 94.245 225.92C91.1401 224.13 88.6851 221.538 86.88 218.144C85.0892 214.75 84.1939 210.642 84.1939 205.818C84.1939 200.98 85.1037 196.865 86.9233 193.471C88.7429 190.077 91.2124 187.492 94.3317 185.716C97.451 183.925 100.96 183.03 104.859 183.03C107.43 183.03 109.813 183.391 112.008 184.113C114.217 184.835 116.174 185.889 117.878 187.276C119.582 188.647 120.969 190.33 122.037 192.323C123.12 194.316 123.814 196.597 124.117 199.168ZM204.146 228H194.094L209.409 183.636H221.497L236.79 228H226.739L215.626 193.774H215.28L204.146 228ZM203.517 210.562H227.259V217.884H203.517V210.562ZM308.62 228V183.636H326.123C329.487 183.636 332.354 184.279 334.722 185.564C337.091 186.835 338.896 188.604 340.138 190.871C341.394 193.124 342.022 195.724 342.022 198.67C342.022 201.616 341.387 204.215 340.116 206.468C338.845 208.721 337.004 210.475 334.592 211.732C332.195 212.988 329.292 213.616 325.884 213.616H314.728V206.1H324.368C326.173 206.1 327.661 205.789 328.83 205.168C330.015 204.533 330.895 203.659 331.473 202.547C332.065 201.421 332.361 200.128 332.361 198.67C332.361 197.197 332.065 195.911 331.473 194.814C330.895 193.702 330.015 192.843 328.83 192.236C327.646 191.615 326.144 191.305 324.325 191.305H317.999V228H308.62ZM423.984 183.636V228H414.605V183.636H423.984ZM496.502 191.37V183.636H532.937V191.37H519.355V228H510.084V191.37H496.502ZM607.653 228H597.602L612.917 183.636H625.005L640.298 228H630.247L619.134 193.774H618.788L607.653 228ZM607.025 210.562H630.767V217.884H607.025V210.562ZM712.128 228V183.636H721.507V220.267H740.526V228H712.128Z" fill="black"/>
<line x1="82" y1="166.5" x2="738" y2="166.5" stroke="black" stroke-width="5"/>
<line x1="82" y1="241.5" x2="738" y2="241.5" stroke="black" stroke-width="5"/>
</svg>
